<svg width="17" height="13" viewBox="0 0 17 13" fill="none" xmlns="http://www.w3.org/2000/svg">
<path d="M3.616 12.176C2.67733 12.176 1.92 11.8827 1.344 11.296C0.768 10.6987 0.48 9.91467 0.48 8.944V3.856C0.48 2.88533 0.768 2.10667 1.344 1.52C1.92 0.922666 2.67733 0.624 3.616 0.624C4.23467 0.624 4.784 0.757333 5.264 1.024C5.744 1.29067 6.112 1.66933 6.368 2.16C6.63467 2.65067 6.768 3.216 6.768 3.856V8.944C6.768 9.584 6.63467 10.1493 6.368 10.64C6.112 11.1307 5.744 11.5093 5.264 11.776C4.784 12.0427 4.23467 12.176 3.616 12.176ZM3.616 10.24C3.88267 10.24 4.096 10.1333 4.256 9.92C4.42667 9.70667 4.512 9.424 4.512 9.072V3.728C4.512 3.376 4.42667 3.09333 4.256 2.88C4.096 2.66667 3.88267 2.56 3.616 2.56C3.34933 2.56 3.136 2.66667 2.976 2.88C2.816 3.09333 2.736 3.376 2.736 3.728V9.072C2.736 9.424 2.816 9.70667 2.976 9.92C3.136 10.1333 3.34933 10.24 3.616 10.24ZM13.566 12.176C12.6273 12.176 11.87 11.8827 11.294 11.296C10.718 10.6987 10.43 9.91467 10.43 8.944V3.856C10.43 2.88533 10.718 2.10667 11.294 1.52C11.87 0.922666 12.6273 0.624 13.566 0.624C14.1847 0.624 14.734 0.757333 15.214 1.024C15.694 1.29067 16.062 1.66933 16.318 2.16C16.5847 2.65067 16.718 3.216 16.718 3.856V8.944C16.718 9.584 16.5847 10.1493 16.318 10.64C16.062 11.1307 15.694 11.5093 15.214 11.776C14.734 12.0427 14.1847 12.176 13.566 12.176ZM13.566 10.24C13.8327 10.24 14.046 10.1333 14.206 9.92C14.3767 9.70667 14.462 9.424 14.462 9.072V3.728C14.462 3.376 14.3767 3.09333 14.206 2.88C14.046 2.66667 13.8327 2.56 13.566 2.56C13.2993 2.56 13.086 2.66667 12.926 2.88C12.766 3.09333 12.686 3.376 12.686 3.728V9.072C12.686 9.424 12.766 9.70667 12.926 9.92C13.086 10.1333 13.2993 10.24 13.566 10.24Z" fill="white"/>
</svg>
