<svg width="14" height="13" viewBox="0 0 14 13" fill="none" xmlns="http://www.w3.org/2000/svg">
<path d="M3.616 12.176C2.67733 12.176 1.92 11.8827 1.344 11.296C0.768 10.6987 0.48 9.91467 0.48 8.944V3.856C0.48 2.88533 0.768 2.10667 1.344 1.52C1.92 0.922666 2.67733 0.624 3.616 0.624C4.23467 0.624 4.784 0.757333 5.264 1.024C5.744 1.29067 6.112 1.66933 6.368 2.16C6.63467 2.65067 6.768 3.216 6.768 3.856V8.944C6.768 9.584 6.63467 10.1493 6.368 10.64C6.112 11.1307 5.744 11.5093 5.264 11.776C4.784 12.0427 4.23467 12.176 3.616 12.176ZM3.616 10.24C3.88267 10.24 4.096 10.1333 4.256 9.92C4.42667 9.70667 4.512 9.424 4.512 9.072V3.728C4.512 3.376 4.42667 3.09333 4.256 2.88C4.096 2.66667 3.88267 2.56 3.616 2.56C3.34933 2.56 3.136 2.66667 2.976 2.88C2.816 3.09333 2.736 3.376 2.736 3.728V9.072C2.736 9.424 2.816 9.70667 2.976 9.92C3.136 10.1333 3.34933 10.24 3.616 10.24ZM11.55 0.848C11.6353 0.815999 11.7153 0.799999 11.79 0.799999H13.726C13.7793 0.799999 13.822 0.821333 13.854 0.863999C13.8967 0.896 13.918 0.938666 13.918 0.992V11.808C13.918 11.8613 13.8967 11.9093 13.854 11.952C13.822 11.984 13.7793 12 13.726 12H11.854C11.8007 12 11.7527 11.984 11.71 11.952C11.678 11.9093 11.662 11.8613 11.662 11.808V3.072C11.662 3.02933 11.6353 3.008 11.582 3.008L10.35 3.152H10.318C10.2007 3.152 10.142 3.09333 10.142 2.976L10.094 1.6C10.094 1.49333 10.142 1.41867 10.238 1.376L11.55 0.848Z" fill="white"/>
</svg>
