<svg width="17" height="13" viewBox="0 0 17 13" fill="none" xmlns="http://www.w3.org/2000/svg">
<path d="M3.616 12.176C2.67733 12.176 1.92 11.8827 1.344 11.296C0.768 10.6987 0.48 9.91467 0.48 8.944V3.856C0.48 2.88533 0.768 2.10667 1.344 1.52C1.92 0.922666 2.67733 0.624 3.616 0.624C4.23467 0.624 4.784 0.757333 5.264 1.024C5.744 1.29067 6.112 1.66933 6.368 2.16C6.63467 2.65067 6.768 3.216 6.768 3.856V8.944C6.768 9.584 6.63467 10.1493 6.368 10.64C6.112 11.1307 5.744 11.5093 5.264 11.776C4.784 12.0427 4.23467 12.176 3.616 12.176ZM3.616 10.24C3.88267 10.24 4.096 10.1333 4.256 9.92C4.42667 9.70667 4.512 9.424 4.512 9.072V3.728C4.512 3.376 4.42667 3.09333 4.256 2.88C4.096 2.66667 3.88267 2.56 3.616 2.56C3.34933 2.56 3.136 2.66667 2.976 2.88C2.816 3.09333 2.736 3.376 2.736 3.728V9.072C2.736 9.424 2.816 9.70667 2.976 9.92C3.136 10.1333 3.34933 10.24 3.616 10.24ZM13.102 9.968C13.0807 9.98933 13.0753 10.0107 13.086 10.032C13.0967 10.0533 13.118 10.064 13.15 10.064H16.494C16.5473 10.064 16.59 10.0853 16.622 10.128C16.6647 10.16 16.686 10.2027 16.686 10.256V11.808C16.686 11.8613 16.6647 11.9093 16.622 11.952C16.59 11.984 16.5473 12 16.494 12H10.574C10.5207 12 10.4727 11.984 10.43 11.952C10.398 11.9093 10.382 11.8613 10.382 11.808V10.192C10.382 10.096 10.4087 10.016 10.462 9.952C10.8887 9.38667 11.1873 9.00267 11.358 8.8C12.2967 7.59467 12.9633 6.68267 13.358 6.064C13.934 5.14667 14.222 4.37333 14.222 3.744C14.222 3.38133 14.1473 3.104 13.998 2.912C13.8593 2.70933 13.6673 2.608 13.422 2.608C13.1767 2.608 12.9793 2.70933 12.83 2.912C12.6807 3.104 12.6113 3.35467 12.622 3.664V4.32C12.622 4.37333 12.6007 4.42133 12.558 4.464C12.526 4.496 12.4833 4.512 12.43 4.512H10.526C10.4727 4.512 10.4247 4.496 10.382 4.464C10.35 4.42133 10.334 4.37333 10.334 4.32V3.568C10.3767 2.69333 10.6913 1.99467 11.278 1.472C11.8647 0.938666 12.6113 0.672 13.518 0.672C14.414 0.672 15.134 0.954666 15.678 1.52C16.2327 2.08533 16.51 2.832 16.51 3.76C16.51 4.31467 16.4193 4.84267 16.238 5.344C16.0673 5.84533 15.7847 6.384 15.39 6.96C15.0913 7.39733 14.5793 8.08 13.854 9.008L13.102 9.968Z" fill="white"/>
</svg>
