<svg width="17" height="13" viewBox="0 0 17 13" fill="none" xmlns="http://www.w3.org/2000/svg">
<path d="M3.616 12.176C2.67733 12.176 1.92 11.8827 1.344 11.296C0.768 10.6987 0.48 9.91467 0.48 8.944V3.856C0.48 2.88533 0.768 2.10667 1.344 1.52C1.92 0.922666 2.67733 0.624 3.616 0.624C4.23467 0.624 4.784 0.757333 5.264 1.024C5.744 1.29067 6.112 1.66933 6.368 2.16C6.63467 2.65067 6.768 3.216 6.768 3.856V8.944C6.768 9.584 6.63467 10.1493 6.368 10.64C6.112 11.1307 5.744 11.5093 5.264 11.776C4.784 12.0427 4.23467 12.176 3.616 12.176ZM3.616 10.24C3.88267 10.24 4.096 10.1333 4.256 9.92C4.42667 9.70667 4.512 9.424 4.512 9.072V3.728C4.512 3.376 4.42667 3.09333 4.256 2.88C4.096 2.66667 3.88267 2.56 3.616 2.56C3.34933 2.56 3.136 2.66667 2.976 2.88C2.816 3.09333 2.736 3.376 2.736 3.728V9.072C2.736 9.424 2.816 9.70667 2.976 9.92C3.136 10.1333 3.34933 10.24 3.616 10.24ZM16.334 7.264C16.3873 7.66933 16.414 8.064 16.414 8.448C16.414 8.91733 16.3927 9.31733 16.35 9.648C16.2647 10.416 15.966 11.024 15.454 11.472C14.9527 11.9093 14.2753 12.128 13.422 12.128C12.5367 12.128 11.8167 11.8933 11.262 11.424C10.7073 10.9547 10.4087 10.3307 10.366 9.552C10.334 9.264 10.318 8.95467 10.318 8.624C10.318 8.496 10.382 8.432 10.51 8.432H12.382C12.51 8.432 12.574 8.496 12.574 8.624C12.574 8.86933 12.59 9.09867 12.622 9.312C12.654 9.58933 12.7393 9.808 12.878 9.968C13.0167 10.1173 13.198 10.192 13.422 10.192C13.6353 10.192 13.8113 10.1173 13.95 9.968C14.0887 9.81867 14.1793 9.616 14.222 9.36C14.254 8.98667 14.27 8.60267 14.27 8.208C14.27 7.70667 14.2433 7.312 14.19 7.024C14.1473 6.77867 14.0567 6.592 13.918 6.464C13.79 6.32533 13.6247 6.256 13.422 6.256C13.262 6.256 13.102 6.32533 12.942 6.464C12.878 6.50667 12.8353 6.528 12.814 6.528C12.7713 6.528 12.7233 6.50133 12.67 6.448L11.71 5.472C11.6673 5.42933 11.646 5.38133 11.646 5.328C11.646 5.28533 11.662 5.24267 11.694 5.2L13.63 2.816C13.6513 2.79467 13.6567 2.77333 13.646 2.752C13.6353 2.73067 13.614 2.72 13.582 2.72H10.702C10.6487 2.72 10.6007 2.704 10.558 2.672C10.526 2.62933 10.51 2.58133 10.51 2.528V0.992C10.51 0.938666 10.526 0.896 10.558 0.863999C10.6007 0.821333 10.6487 0.799999 10.702 0.799999H16.206C16.2593 0.799999 16.302 0.821333 16.334 0.863999C16.3767 0.896 16.398 0.938666 16.398 0.992V2.592C16.398 2.67733 16.3713 2.75733 16.318 2.832L14.526 5.088C14.5153 5.10933 14.51 5.13067 14.51 5.152C14.51 5.17333 14.5207 5.184 14.542 5.184C15.0113 5.22667 15.406 5.44 15.726 5.824C16.0567 6.208 16.2593 6.688 16.334 7.264Z" fill="white"/>
</svg>
