<svg width="24" height="21" viewBox="0 0 24 21" fill="none" xmlns="http://www.w3.org/2000/svg">
<path opacity="0.25" d="M5.828 20.308C4.18533 20.308 2.86 19.7947 1.852 18.768C0.844 17.7227 0.34 16.3507 0.34 14.652V5.748C0.34 4.04933 0.844 2.68667 1.852 1.66C2.86 0.614666 4.18533 0.0919993 5.828 0.0919993C6.91067 0.0919993 7.872 0.325332 8.712 0.791999C9.552 1.25867 10.196 1.92133 10.644 2.78C11.1107 3.63867 11.344 4.628 11.344 5.748V14.652C11.344 15.772 11.1107 16.7613 10.644 17.62C10.196 18.4787 9.552 19.1413 8.712 19.608C7.872 20.0747 6.91067 20.308 5.828 20.308ZM5.828 16.92C6.29467 16.92 6.668 16.7333 6.948 16.36C7.24667 15.9867 7.396 15.492 7.396 14.876V5.524C7.396 4.908 7.24667 4.41333 6.948 4.04C6.668 3.66667 6.29467 3.48 5.828 3.48C5.36133 3.48 4.988 3.66667 4.708 4.04C4.428 4.41333 4.288 4.908 4.288 5.524V14.876C4.288 15.492 4.428 15.9867 4.708 16.36C4.988 16.7333 5.36133 16.92 5.828 16.92ZM19.7125 0.483999C19.8618 0.427999 20.0018 0.399999 20.1325 0.399999H23.5205C23.6138 0.399999 23.6885 0.437332 23.7445 0.511999C23.8192 0.567999 23.8565 0.642666 23.8565 0.735999V19.664C23.8565 19.7573 23.8192 19.8413 23.7445 19.916C23.6885 19.972 23.6138 20 23.5205 20H20.2445C20.1512 20 20.0672 19.972 19.9925 19.916C19.9365 19.8413 19.9085 19.7573 19.9085 19.664V4.376C19.9085 4.30133 19.8618 4.264 19.7685 4.264L17.6125 4.516H17.5565C17.3512 4.516 17.2485 4.41333 17.2485 4.208L17.1645 1.8C17.1645 1.61333 17.2485 1.48267 17.4165 1.408L19.7125 0.483999Z" fill="white"/>
</svg>
